<?xml version="1.0" encoding="utf-8"?>
<!-- Generator: Adobe Illustrator 21.0.0, SVG Export Plug-In . SVG Version: 6.00 Build 0)  -->
<svg version="1.1"
	 id="svg2" inkscape:export-filename="C:\DEV\src\Android\nextcloud_android\res\mipmap-xxxhdpi\ic_launcher.png" inkscape:export-xdpi="454.73999" inkscape:export-ydpi="454.73999" inkscape:version="0.91 r13725" sodipodi:docname="launcher.svg" xmlns:cc="http://creativecommons.org/ns#" xmlns:dc="http://purl.org/dc/elements/1.1/" xmlns:inkscape="http://www.inkscape.org/namespaces/inkscape" xmlns:osb="http://www.openswatchbook.org/uri/2009/osb" xmlns:rdf="http://www.w3.org/1999/02/22-rdf-syntax-ns#" xmlns:sodipodi="http://sodipodi.sourceforge.net/DTD/sodipodi-0.dtd" xmlns:svg="http://www.w3.org/2000/svg"
	 xmlns="http://www.w3.org/2000/svg" xmlns:xlink="http://www.w3.org/1999/xlink" x="0px" y="0px" viewBox="0 0 48 48"
	 style="enable-background:new 0 0 48 48;" xml:space="preserve">
<style type="text/css">
	.st0{fill:none;}
	.st1{filter:url(#filterShade);}
	.st2{clip-path:url(#SVGID_2_);}
	.st3{clip-path:url(#SVGID_4_);}
	.st4{fill:#FFFFFF;}
</style>
<filter  height="1" id="filterShade" inkscape:label="Shade" width="1" x="0" y="0">
	<!-- 
        Filter used to produce the darker edge at the bottom of material
        elements.

        Edit the flood-color attribute in the feFlood element below to
        change the shade color.  -->
	<feFlood  flood-color="#212121" flood-opacity="0.2" id="feFlood24" result="floodShadeColor"></feFlood>
	<feOffset  dx="0" dy="-1" id="feOffset26" in="SourceAlpha" result="offsetAlpha"></feOffset>
	<feComposite  id="feComposite28" in="SourceAlpha" in2="offsetAlpha" operator="out" result="edgeAlpha"></feComposite>
	<feComposite  id="feComposite30" in="floodShadeColor" in2="edgeAlpha" operator="in" result="edgeColor"></feComposite>
	<feBlend  id="feBlend32" in="edgeColor" in2="SourceGraphic" mode="normal" result="shade"></feBlend>
</filter>
<sodipodi:namedview  id="namedview45" inkscape:current-layer="materialBackground" inkscape:cx="4.0439432" inkscape:cy="29.818644" inkscape:window-height="1005" inkscape:window-maximized="1" inkscape:window-width="1920" inkscape:window-x="-9" inkscape:window-y="-9" inkscape:zoom="13.906433" showgrid="true">
	<!-- 
      This defines the grids shown in Inkscape.
      These won't affect the result of the render.  -->
	<inkscape:grid  dotted="false" empspacing="7" enabled="true" id="gridMain" originx="3" originy="3" type="xygrid">
		</inkscape:grid>
	
		<inkscape:grid  empspacing="1" enabled="true" gridanglex="45" gridanglez="45" id="gridDiagonal" spacingy="48" type="axonomgrid" units="px">
		</inkscape:grid>
</sodipodi:namedview>
<g>
	<path class="st0" d="M8,5h32c1.7,0,3,1.3,3,3v32c0,1.7-1.3,3-3,3H8c-1.7,0-3-1.3-3-3V8C5,6.3,6.3,5,8,5z"/>
	<g id="g50_1_" class="st1">
	</g>
	<g>
		<defs>
			<path id="SVGID_1_" d="M8,5h32c1.7,0,3,1.3,3,3v32c0,1.7-1.3,3-3,3H8c-1.7,0-3-1.3-3-3V8C5,6.3,6.3,5,8,5z"/>
		</defs>
		<clipPath id="SVGID_2_">
			<use xlink:href="#SVGID_1_"  style="overflow:visible;"/>
		</clipPath>
		<g id="materialForeground_1_" inkscape:groupmode="layer" inkscape:label="Material foreground" class="st2">
		</g>
	</g>
	<g>
		<defs>
			<path id="SVGID_3_" d="M8,5h32c1.7,0,3,1.3,3,3v32c0,1.7-1.3,3-3,3H8c-1.7,0-3-1.3-3-3V8C5,6.3,6.3,5,8,5z"/>
		</defs>
		<clipPath id="SVGID_4_">
			<use xlink:href="#SVGID_3_"  style="overflow:visible;"/>
		</clipPath>
		<g id="finish_1_" inkscape:groupmode="layer" inkscape:label="Finish" class="st3">
		</g>
	</g>
	<g>
		<path class="st4" d="M17.5,32.7c-2.6,0.4-5.2-1.6-4.8-4.3c0.2-1.2,1.1-2.2,2.2-2.6c0.9-0.3,1.9-0.2,2.9-0.1c1.3,0.1,2.6,0.5,3.9,1
			c1.2,0.6,2.4,1.4,3.6,2c0.9,0.5,1.9,0.9,2.9,1.1c1.2,0.3,2.8,0.5,4,0c0.4-0.2,0.7-0.7,0.5-1.2c-0.2-0.5-0.6-0.6-1.1-0.5
			c-1,0-1.9-0.1-2.9-0.4c-2-0.7-3.6-2-5.4-3.1c-3.9-2.2-10.7-3.3-12.9,1.8c-1.1,2.6-0.3,5.8,2.1,7.3c1.2,0.8,2.6,1.1,4,0.8
			c0.5-0.1,1.4-0.3,1.7-0.7C18.6,33.3,18.1,32.6,17.5,32.7z"/>
		<path class="st4" d="M38,27.9c-0.4-2.5-2.6-4.6-5.2-4.8c-0.8-0.1-2.7,0-3.1,0.9c-0.7,1.4,2,1,2.5,1.1c2.5,0.6,4,3.6,2.4,5.8
			c-1.4,1.9-4.2,1.5-6.2,1c-2.5-0.6-4.4-2.3-6.7-3.2c-1.3-0.5-2.6-0.9-4-0.9c-0.8,0-2.8,0-2.5,1.3c0.2,0.9,1.2,0.6,1.9,0.6
			c1.2,0.1,2.5,0.5,3.6,1c1.9,1,3.6,2.4,5.6,3.3c2.3,0.9,5.4,1.5,7.8,0.6C36.8,33.6,38.5,30.7,38,27.9z"/>
		<path class="st4" d="M20.3,21.5c1.5,1,4.2,0.7,5.2-1c0.3-0.5,0.5-1.2,0.3-1.8c-0.3-0.9-1.3-1.3-2.1-0.8c-0.4,0.2-0.6,0.6-0.6,1.1
			c0,0.2,0.2,0.5,0.1,0.7c0,0.2-0.3,0.3-0.6,0.4c-0.7,0.1-1.4-0.2-1.6-0.9c-0.6-1.6,0.9-3.3,2.5-3.5c1.9-0.2,3.8,1.1,4,3.1
			c0.2,1.2-0.3,1.9-0.7,3c-0.3,0.9,0.5,1.8,1.4,1.5c0.9-0.3,1.4-1.8,1.7-2.6c0.3-1,0.3-2.2,0-3.2c-0.5-2.1-2.3-3.8-4.4-4.4
			c-2.3-0.7-5,0.4-6.3,2.4C17.9,17.5,18.3,20.2,20.3,21.5z"/>
	</g>
</g>
</svg>
