<?xml version="1.0" encoding="utf-8"?>
<!-- Generator: Adobe Illustrator 21.0.0, SVG Export Plug-In . SVG Version: 6.00 Build 0)  -->
<svg version="1.1"
	 id="svg2" inkscape:export-filename="C:\DEV\src\Android\nextcloud_android\res\drawable-xxxhdpi\notification_icon.png" inkscape:export-xdpi="139.35001" inkscape:export-ydpi="139.35001" inkscape:version="0.91 r13725" sodipodi:docname="notification-icon.svg" xmlns:cc="http://creativecommons.org/ns#" xmlns:dc="http://purl.org/dc/elements/1.1/" xmlns:inkscape="http://www.inkscape.org/namespaces/inkscape" xmlns:rdf="http://www.w3.org/1999/02/22-rdf-syntax-ns#" xmlns:sodipodi="http://sodipodi.sourceforge.net/DTD/sodipodi-0.dtd" xmlns:svg="http://www.w3.org/2000/svg"
	 xmlns="http://www.w3.org/2000/svg" xmlns:xlink="http://www.w3.org/1999/xlink" x="0px" y="0px" viewBox="0 0 62 62"
	 style="enable-background:new 0 0 62 62;" xml:space="preserve">
<style type="text/css">
	.st0{fill:#FFFFFF;}
</style>
<sodipodi:namedview  bordercolor="#666666" borderopacity="1" gridtolerance="10" guidetolerance="10" id="namedview6" inkscape:current-layer="svg2" inkscape:cx="31" inkscape:cy="17" inkscape:pageopacity="0" inkscape:pageshadow="2" inkscape:window-height="1005" inkscape:window-maximized="1" inkscape:window-width="1920" inkscape:window-x="-9" inkscape:window-y="-9" inkscape:zoom="6.9411765" objecttolerance="10" pagecolor="#ffffff" showgrid="false">
	</sodipodi:namedview>
<g>
	<path class="st0" d="M20.2,45.3c-4.3,0.6-8.7-2.6-7.9-7.2c0.3-2,1.8-3.7,3.7-4.4c1.5-0.5,3.2-0.4,4.8-0.2c2.2,0.2,4.4,0.8,6.4,1.7
		c2.1,1,3.9,2.3,6,3.4c1.5,0.8,3.2,1.4,4.9,1.8c1.9,0.4,4.7,0.9,6.6,0c0.7-0.3,1.1-1.1,0.8-1.9c-0.3-0.8-1-0.9-1.8-0.9
		c-1.6,0.1-3.2-0.1-4.8-0.6c-3.4-1.1-6-3.4-9-5.1c-6.5-3.7-17.7-5.4-21.4,3c-1.9,4.3-0.5,9.6,3.5,12.2c1.9,1.3,4.3,1.8,6.6,1.4
		c0.9-0.2,2.4-0.4,2.9-1.2C21.9,46.3,21.2,45.1,20.2,45.3z"/>
	<path class="st0" d="M54.2,37.3c-0.7-4.2-4.3-7.6-8.6-7.9c-1.4-0.1-4.4,0-5.1,1.5c-1.2,2.4,3.2,1.7,4.2,1.9c4.1,0.9,6.7,6,4,9.6
		c-2.4,3.1-7,2.5-10.3,1.7c-4.1-1-7.3-3.8-11.1-5.4c-2.1-0.9-4.4-1.5-6.7-1.5c-1.3,0-4.7,0-4.1,2.2c0.4,1.5,2.1,1,3.2,1
		c2.1,0.1,4.1,0.8,5.9,1.7c3.2,1.6,5.9,4.1,9.3,5.4c3.8,1.5,8.9,2.5,12.9,1C52.2,46.9,55,42.1,54.2,37.3z"/>
	<path class="st0" d="M24.8,26.8c2.6,1.7,7,1.2,8.6-1.7c0.5-0.8,0.8-2,0.5-2.9c-0.4-1.4-2.2-2.1-3.5-1.3c-0.6,0.4-1,1.1-1,1.8
		c0,0.3,0.3,0.9,0.2,1.1c-0.1,0.4-0.5,0.5-1,0.6c-1.2,0.2-2.3-0.3-2.7-1.4c-1.1-2.7,1.6-5.5,4.2-5.8c3.2-0.3,6.3,1.9,6.7,5.1
		c0.3,2-0.6,3.2-1.2,5c-0.5,1.5,0.9,3,2.4,2.5c1.5-0.5,2.4-2.9,2.8-4.3c0.5-1.7,0.5-3.6,0.1-5.4c-0.9-3.5-3.8-6.3-7.3-7.3
		c-3.9-1.1-8.3,0.6-10.5,3.9C20.8,20,21.5,24.5,24.8,26.8z"/>
</g>
</svg>
